# MagicaVoxel @ Ephtracy

# group
g house

# material
mtllib house.mtl
usemtl palette

# normals
vn -1 0 0
vn 1 0 0
vn 0 0 1
vn 0 0 -1
vn 0 -1 0
vn 0 1 0

# texcoords
vt 0.0917969 0.5
vt 0.845703 0.5

# verts
v -20 0 20
v -20 0 -20
v -20 23 20
v -20 23 -20
v -20 24 20
v -20 24 -20
v -19 24 20
v -19 24 -20
v -19 25 20
v -19 25 -20
v -17 25 20
v -17 25 -20
v -17 26 20
v -17 26 -20
v -15 26 20
v -15 26 -20
v -15 27 20
v -15 27 -20
v -13 27 20
v -13 27 -20
v -13 28 20
v -13 28 -20
v -11 28 20
v -11 28 -20
v -11 29 20
v -11 29 -20
v -9 29 20
v -9 29 -20
v -9 30 20
v -9 30 -20
v -7 17 20
v -7 17 19
v -7 22 20
v -7 22 19
v -7 30 20
v -7 30 -20
v -7 31 20
v -7 31 -20
v -5 31 20
v -5 31 -20
v -5 32 20
v -5 32 -20
v -3 32 20
v -3 32 -20
v -3 33 20
v -3 33 -20
v -1 33 20
v -1 33 -20
v -1 34 20
v -1 34 -20
v 1 32 19
v 1 32 -19
v 1 33 19
v 1 33 -19
v 3 0 20
v 3 0 19
v 3 1 19
v 3 11 20
v 3 11 19
v 3 31 19
v 3 31 -19
v 3 32 19
v 3 32 -19
v 5 30 19
v 5 30 -19
v 5 31 19
v 5 31 -19
v 7 29 19
v 7 29 -19
v 7 30 19
v 7 30 -19
v 9 28 19
v 9 28 -19
v 9 29 19
v 9 29 -19
v 11 27 19
v 11 27 -19
v 11 28 19
v 11 28 -19
v 13 17 20
v 13 17 19
v 13 22 20
v 13 22 19
v 13 26 19
v 13 26 -19
v 13 27 19
v 13 27 -19
v 15 25 19
v 15 25 -19
v 15 26 19
v 15 26 -19
v 17 24 19
v 17 24 -19
v 17 25 19
v 17 25 -19
v 19 1 19
v 19 1 -19
v 19 23 19
v 19 23 -19
v 19 24 19
v 19 24 -19
v -19 1 19
v -19 1 -19
v -19 23 19
v -19 23 -19
v -19 24 19
v -19 24 -19
v -17 24 19
v -17 24 -19
v -17 25 19
v -17 25 -19
v -15 25 19
v -15 25 -19
v -15 26 19
v -15 26 -19
v -14 17 20
v -14 17 19
v -14 22 20
v -14 22 19
v -13 26 19
v -13 26 -19
v -13 27 19
v -13 27 -19
v -11 27 19
v -11 27 -19
v -11 28 19
v -11 28 -19
v -9 28 19
v -9 28 -19
v -9 29 19
v -9 29 -19
v -7 29 19
v -7 29 -19
v -7 30 19
v -7 30 -19
v -5 30 19
v -5 30 -19
v -5 31 19
v -5 31 -19
v -4 0 20
v -4 0 19
v -4 1 19
v -4 11 20
v -4 11 19
v -3 31 19
v -3 31 -19
v -3 32 19
v -3 32 -19
v -1 32 19
v -1 32 -19
v -1 33 19
v -1 33 -19
v 1 33 20
v 1 33 -20
v 1 34 20
v 1 34 -20
v 3 32 20
v 3 32 -20
v 3 33 20
v 3 33 -20
v 5 31 20
v 5 31 -20
v 5 32 20
v 5 32 -20
v 6 17 20
v 6 17 19
v 6 22 20
v 6 22 19
v 7 30 20
v 7 30 -20
v 7 31 20
v 7 31 -20
v 9 29 20
v 9 29 -20
v 9 30 20
v 9 30 -20
v 11 28 20
v 11 28 -20
v 11 29 20
v 11 29 -20
v 13 27 20
v 13 27 -20
v 13 28 20
v 13 28 -20
v 15 26 20
v 15 26 -20
v 15 27 20
v 15 27 -20
v 17 25 20
v 17 25 -20
v 17 26 20
v 17 26 -20
v 19 24 20
v 19 24 -20
v 19 25 20
v 19 25 -20
v 20 0 20
v 20 0 -20
v 20 23 20
v 20 23 -20
v 20 24 20
v 20 24 -20
v -20 0 20
v -20 23 20
v -20 24 20
v -19 23 20
v -19 24 20
v -19 25 20
v -17 24 20
v -17 25 20
v -17 26 20
v -15 25 20
v -15 26 20
v -15 27 20
v -14 17 20
v -14 22 20
v -13 26 20
v -13 27 20
v -13 28 20
v -11 27 20
v -11 28 20
v -11 29 20
v -9 28 20
v -9 29 20
v -9 30 20
v -7 17 20
v -7 22 20
v -7 29 20
v -7 30 20
v -7 31 20
v -5 30 20
v -5 31 20
v -5 32 20
v -4 0 20
v -4 11 20
v -3 31 20
v -3 32 20
v -3 33 20
v -1 32 20
v -1 33 20
v -1 34 20
v 1 32 20
v 1 33 20
v 1 34 20
v 3 0 20
v 3 11 20
v 3 31 20
v 3 32 20
v 3 33 20
v 5 30 20
v 5 31 20
v 5 32 20
v 6 17 20
v 6 22 20
v 7 29 20
v 7 30 20
v 7 31 20
v 9 28 20
v 9 29 20
v 9 30 20
v 11 27 20
v 11 28 20
v 11 29 20
v 13 17 20
v 13 22 20
v 13 26 20
v 13 27 20
v 13 28 20
v 15 25 20
v 15 26 20
v 15 27 20
v 17 24 20
v 17 25 20
v 17 26 20
v 19 23 20
v 19 24 20
v 19 25 20
v 20 0 20
v 20 23 20
v 20 24 20
v -4 0 19
v -4 1 19
v 3 0 19
v 3 1 19
v -19 1 -19
v -19 23 -19
v -19 24 -19
v -17 24 -19
v -17 25 -19
v -15 25 -19
v -15 26 -19
v -13 26 -19
v -13 27 -19
v -11 27 -19
v -11 28 -19
v -9 28 -19
v -9 29 -19
v -7 29 -19
v -7 30 -19
v -5 30 -19
v -5 31 -19
v -3 31 -19
v -3 32 -19
v -1 32 -19
v -1 33 -19
v 1 32 -19
v 1 33 -19
v 3 31 -19
v 3 32 -19
v 5 30 -19
v 5 31 -19
v 7 29 -19
v 7 30 -19
v 9 28 -19
v 9 29 -19
v 11 27 -19
v 11 28 -19
v 13 26 -19
v 13 27 -19
v 15 25 -19
v 15 26 -19
v 17 24 -19
v 17 25 -19
v 19 1 -19
v 19 23 -19
v 19 24 -19
v -19 1 19
v -19 23 19
v -19 24 19
v -17 24 19
v -17 25 19
v -15 25 19
v -15 26 19
v -14 17 19
v -14 22 19
v -13 26 19
v -13 27 19
v -11 27 19
v -11 28 19
v -9 28 19
v -9 29 19
v -7 17 19
v -7 22 19
v -7 29 19
v -7 30 19
v -5 30 19
v -5 31 19
v -4 1 19
v -4 11 19
v -3 31 19
v -3 32 19
v -1 32 19
v -1 33 19
v 1 32 19
v 1 33 19
v 3 1 19
v 3 11 19
v 3 31 19
v 3 32 19
v 5 30 19
v 5 31 19
v 6 17 19
v 6 22 19
v 7 29 19
v 7 30 19
v 9 28 19
v 9 29 19
v 11 27 19
v 11 28 19
v 13 17 19
v 13 22 19
v 13 26 19
v 13 27 19
v 15 25 19
v 15 26 19
v 17 24 19
v 17 25 19
v 19 1 19
v 19 23 19
v 19 24 19
v -20 0 -20
v -20 23 -20
v -20 24 -20
v -19 23 -20
v -19 24 -20
v -19 25 -20
v -17 24 -20
v -17 25 -20
v -17 26 -20
v -15 25 -20
v -15 26 -20
v -15 27 -20
v -13 26 -20
v -13 27 -20
v -13 28 -20
v -11 27 -20
v -11 28 -20
v -11 29 -20
v -9 28 -20
v -9 29 -20
v -9 30 -20
v -7 29 -20
v -7 30 -20
v -7 31 -20
v -5 30 -20
v -5 31 -20
v -5 32 -20
v -3 31 -20
v -3 32 -20
v -3 33 -20
v -1 32 -20
v -1 33 -20
v -1 34 -20
v 1 32 -20
v 1 33 -20
v 1 34 -20
v 3 31 -20
v 3 32 -20
v 3 33 -20
v 5 30 -20
v 5 31 -20
v 5 32 -20
v 7 29 -20
v 7 30 -20
v 7 31 -20
v 9 28 -20
v 9 29 -20
v 9 30 -20
v 11 27 -20
v 11 28 -20
v 11 29 -20
v 13 26 -20
v 13 27 -20
v 13 28 -20
v 15 25 -20
v 15 26 -20
v 15 27 -20
v 17 24 -20
v 17 25 -20
v 17 26 -20
v 19 23 -20
v 19 24 -20
v 19 25 -20
v 20 0 -20
v 20 23 -20
v 20 24 -20
v -20 0 20
v -4 0 20
v 3 0 20
v 20 0 20
v -4 0 19
v 3 0 19
v -20 0 -20
v 20 0 -20
v -4 11 20
v 3 11 20
v -4 11 19
v 3 11 19
v -14 22 20
v -7 22 20
v 6 22 20
v 13 22 20
v -14 22 19
v -7 22 19
v 6 22 19
v 13 22 19
v -19 24 19
v -17 24 19
v 17 24 19
v 19 24 19
v -19 24 -19
v -17 24 -19
v 17 24 -19
v 19 24 -19
v -17 25 19
v -15 25 19
v 15 25 19
v 17 25 19
v -17 25 -19
v -15 25 -19
v 15 25 -19
v 17 25 -19
v -15 26 19
v -13 26 19
v 13 26 19
v 15 26 19
v -15 26 -19
v -13 26 -19
v 13 26 -19
v 15 26 -19
v -13 27 19
v -11 27 19
v 11 27 19
v 13 27 19
v -13 27 -19
v -11 27 -19
v 11 27 -19
v 13 27 -19
v -11 28 19
v -9 28 19
v 9 28 19
v 11 28 19
v -11 28 -19
v -9 28 -19
v 9 28 -19
v 11 28 -19
v -9 29 19
v -7 29 19
v 7 29 19
v 9 29 19
v -9 29 -19
v -7 29 -19
v 7 29 -19
v 9 29 -19
v -7 30 19
v -5 30 19
v 5 30 19
v 7 30 19
v -7 30 -19
v -5 30 -19
v 5 30 -19
v 7 30 -19
v -5 31 19
v -3 31 19
v 3 31 19
v 5 31 19
v -5 31 -19
v -3 31 -19
v 3 31 -19
v 5 31 -19
v -3 32 19
v -1 32 19
v 1 32 19
v 3 32 19
v -3 32 -19
v -1 32 -19
v 1 32 -19
v 3 32 -19
v -1 33 19
v 1 33 19
v -1 33 -19
v 1 33 -19
v -19 1 19
v -4 1 19
v 3 1 19
v 19 1 19
v -19 1 -19
v 19 1 -19
v -14 17 20
v -7 17 20
v 6 17 20
v 13 17 20
v -14 17 19
v -7 17 19
v 6 17 19
v 13 17 19
v -20 24 20
v -19 24 20
v 19 24 20
v 20 24 20
v -20 24 -20
v -19 24 -20
v 19 24 -20
v 20 24 -20
v -19 25 20
v -17 25 20
v 17 25 20
v 19 25 20
v -19 25 -20
v -17 25 -20
v 17 25 -20
v 19 25 -20
v -17 26 20
v -15 26 20
v 15 26 20
v 17 26 20
v -17 26 -20
v -15 26 -20
v 15 26 -20
v 17 26 -20
v -15 27 20
v -13 27 20
v 13 27 20
v 15 27 20
v -15 27 -20
v -13 27 -20
v 13 27 -20
v 15 27 -20
v -13 28 20
v -11 28 20
v 11 28 20
v 13 28 20
v -13 28 -20
v -11 28 -20
v 11 28 -20
v 13 28 -20
v -11 29 20
v -9 29 20
v 9 29 20
v 11 29 20
v -11 29 -20
v -9 29 -20
v 9 29 -20
v 11 29 -20
v -9 30 20
v -7 30 20
v 7 30 20
v 9 30 20
v -9 30 -20
v -7 30 -20
v 7 30 -20
v 9 30 -20
v -7 31 20
v -5 31 20
v 5 31 20
v 7 31 20
v -7 31 -20
v -5 31 -20
v 5 31 -20
v 7 31 -20
v -5 32 20
v -3 32 20
v 3 32 20
v 5 32 20
v -5 32 -20
v -3 32 -20
v 3 32 -20
v 5 32 -20
v -3 33 20
v -1 33 20
v 1 33 20
v 3 33 20
v -3 33 -20
v -1 33 -20
v 1 33 -20
v 3 33 -20
v -1 34 20
v 1 34 20
v -1 34 -20
v 1 34 -20

# faces
f 3/1/1 2/1/1 1/1/1
f 4/1/1 2/1/1 3/1/1
f 5/2/1 4/2/1 3/2/1
f 6/2/1 4/2/1 5/2/1
f 9/2/1 8/2/1 7/2/1
f 10/2/1 8/2/1 9/2/1
f 13/2/1 12/2/1 11/2/1
f 14/2/1 12/2/1 13/2/1
f 17/2/1 16/2/1 15/2/1
f 18/2/1 16/2/1 17/2/1
f 21/2/1 20/2/1 19/2/1
f 22/2/1 20/2/1 21/2/1
f 25/2/1 24/2/1 23/2/1
f 26/2/1 24/2/1 25/2/1
f 29/2/1 28/2/1 27/2/1
f 30/2/1 28/2/1 29/2/1
f 33/1/1 32/1/1 31/1/1
f 34/1/1 32/1/1 33/1/1
f 37/2/1 36/2/1 35/2/1
f 38/2/1 36/2/1 37/2/1
f 41/2/1 40/2/1 39/2/1
f 42/2/1 40/2/1 41/2/1
f 45/2/1 44/2/1 43/2/1
f 46/2/1 44/2/1 45/2/1
f 49/2/1 48/2/1 47/2/1
f 50/2/1 48/2/1 49/2/1
f 53/2/1 52/2/1 51/2/1
f 54/2/1 52/2/1 53/2/1
f 57/1/1 56/1/1 55/1/1
f 58/1/1 57/1/1 55/1/1
f 59/1/1 57/1/1 58/1/1
f 62/2/1 61/2/1 60/2/1
f 63/2/1 61/2/1 62/2/1
f 66/2/1 65/2/1 64/2/1
f 67/2/1 65/2/1 66/2/1
f 70/2/1 69/2/1 68/2/1
f 71/2/1 69/2/1 70/2/1
f 74/2/1 73/2/1 72/2/1
f 75/2/1 73/2/1 74/2/1
f 78/2/1 77/2/1 76/2/1
f 79/2/1 77/2/1 78/2/1
f 82/1/1 81/1/1 80/1/1
f 83/1/1 81/1/1 82/1/1
f 86/2/1 85/2/1 84/2/1
f 87/2/1 85/2/1 86/2/1
f 90/2/1 89/2/1 88/2/1
f 91/2/1 89/2/1 90/2/1
f 94/2/1 93/2/1 92/2/1
f 95/2/1 93/2/1 94/2/1
f 98/1/1 97/1/1 96/1/1
f 99/1/1 97/1/1 98/1/1
f 100/2/1 99/2/1 98/2/1
f 101/2/1 99/2/1 100/2/1
f 102/1/2 103/1/2 104/1/2
f 104/1/2 103/1/2 105/1/2
f 104/2/2 105/2/2 106/2/2
f 106/2/2 105/2/2 107/2/2
f 108/2/2 109/2/2 110/2/2
f 110/2/2 109/2/2 111/2/2
f 112/2/2 113/2/2 114/2/2
f 114/2/2 113/2/2 115/2/2
f 116/1/2 117/1/2 118/1/2
f 118/1/2 117/1/2 119/1/2
f 120/2/2 121/2/2 122/2/2
f 122/2/2 121/2/2 123/2/2
f 124/2/2 125/2/2 126/2/2
f 126/2/2 125/2/2 127/2/2
f 128/2/2 129/2/2 130/2/2
f 130/2/2 129/2/2 131/2/2
f 132/2/2 133/2/2 134/2/2
f 134/2/2 133/2/2 135/2/2
f 136/2/2 137/2/2 138/2/2
f 138/2/2 137/2/2 139/2/2
f 140/1/2 141/1/2 142/1/2
f 140/1/2 142/1/2 143/1/2
f 143/1/2 142/1/2 144/1/2
f 145/2/2 146/2/2 147/2/2
f 147/2/2 146/2/2 148/2/2
f 149/2/2 150/2/2 151/2/2
f 151/2/2 150/2/2 152/2/2
f 153/2/2 154/2/2 155/2/2
f 155/2/2 154/2/2 156/2/2
f 157/2/2 158/2/2 159/2/2
f 159/2/2 158/2/2 160/2/2
f 161/2/2 162/2/2 163/2/2
f 163/2/2 162/2/2 164/2/2
f 165/1/2 166/1/2 167/1/2
f 167/1/2 166/1/2 168/1/2
f 169/2/2 170/2/2 171/2/2
f 171/2/2 170/2/2 172/2/2
f 173/2/2 174/2/2 175/2/2
f 175/2/2 174/2/2 176/2/2
f 177/2/2 178/2/2 179/2/2
f 179/2/2 178/2/2 180/2/2
f 181/2/2 182/2/2 183/2/2
f 183/2/2 182/2/2 184/2/2
f 185/2/2 186/2/2 187/2/2
f 187/2/2 186/2/2 188/2/2
f 189/2/2 190/2/2 191/2/2
f 191/2/2 190/2/2 192/2/2
f 193/2/2 194/2/2 195/2/2
f 195/2/2 194/2/2 196/2/2
f 197/1/2 198/1/2 199/1/2
f 199/1/2 198/1/2 200/1/2
f 199/2/2 200/2/2 201/2/2
f 201/2/2 200/2/2 202/2/2
f 206/1/3 204/1/3 203/1/3
f 206/2/3 205/2/3 204/2/3
f 207/2/3 205/2/3 206/2/3
f 209/1/3 207/1/3 206/1/3
f 209/2/3 208/2/3 207/2/3
f 210/2/3 208/2/3 209/2/3
f 212/1/3 210/1/3 209/1/3
f 212/2/3 211/2/3 210/2/3
f 213/2/3 211/2/3 212/2/3
f 215/1/3 206/1/3 203/1/3
f 215/1/3 209/1/3 206/1/3
f 215/1/3 213/1/3 212/1/3
f 215/1/3 212/1/3 209/1/3
f 216/1/3 213/1/3 215/1/3
f 217/2/3 214/2/3 213/2/3
f 217/1/3 213/1/3 216/1/3
f 218/2/3 214/2/3 217/2/3
f 220/1/3 218/1/3 217/1/3
f 220/2/3 219/2/3 218/2/3
f 221/2/3 219/2/3 220/2/3
f 223/1/3 221/1/3 220/1/3
f 223/2/3 222/2/3 221/2/3
f 224/2/3 222/2/3 223/2/3
f 226/1/3 215/1/3 203/1/3
f 227/1/3 217/1/3 216/1/3
f 227/1/3 220/1/3 217/1/3
f 227/1/3 224/1/3 223/1/3
f 227/1/3 223/1/3 220/1/3
f 228/2/3 225/2/3 224/2/3
f 228/1/3 224/1/3 227/1/3
f 229/2/3 225/2/3 228/2/3
f 231/1/3 227/1/3 226/1/3
f 231/2/3 230/2/3 229/2/3
f 231/1/3 229/1/3 228/1/3
f 231/1/3 228/1/3 227/1/3
f 232/2/3 230/2/3 231/2/3
f 234/1/3 226/1/3 203/1/3
f 234/1/3 231/1/3 226/1/3
f 234/1/3 232/1/3 231/1/3
f 235/1/3 232/1/3 234/1/3
f 236/2/3 233/2/3 232/2/3
f 236/1/3 232/1/3 235/1/3
f 237/2/3 233/2/3 236/2/3
f 239/1/3 237/1/3 236/1/3
f 239/2/3 238/2/3 237/2/3
f 240/2/3 238/2/3 239/2/3
f 242/1/3 239/1/3 236/1/3
f 242/1/3 240/1/3 239/1/3
f 243/2/3 241/2/3 240/2/3
f 243/1/3 240/1/3 242/1/3
f 244/2/3 241/2/3 243/2/3
f 246/1/3 236/1/3 235/1/3
f 246/1/3 242/1/3 236/1/3
f 247/1/3 242/1/3 246/1/3
f 248/2/3 243/2/3 242/2/3
f 248/1/3 242/1/3 247/1/3
f 249/2/3 243/2/3 248/2/3
f 250/1/3 247/1/3 246/1/3
f 250/1/3 246/1/3 245/1/3
f 251/2/3 248/2/3 247/2/3
f 251/1/3 247/1/3 250/1/3
f 252/2/3 248/2/3 251/2/3
f 253/1/3 250/1/3 245/1/3
f 254/1/3 250/1/3 253/1/3
f 255/1/3 250/1/3 254/1/3
f 256/2/3 251/2/3 250/2/3
f 256/1/3 250/1/3 255/1/3
f 257/2/3 251/2/3 256/2/3
f 258/1/3 255/1/3 254/1/3
f 259/2/3 256/2/3 255/2/3
f 259/1/3 255/1/3 258/1/3
f 260/2/3 256/2/3 259/2/3
f 261/1/3 258/1/3 254/1/3
f 262/2/3 259/2/3 258/2/3
f 262/1/3 258/1/3 261/1/3
f 263/2/3 259/2/3 262/2/3
f 264/1/3 253/1/3 245/1/3
f 265/1/3 261/1/3 254/1/3
f 266/1/3 261/1/3 265/1/3
f 267/2/3 262/2/3 261/2/3
f 267/1/3 261/1/3 266/1/3
f 268/2/3 262/2/3 267/2/3
f 269/1/3 266/1/3 265/1/3
f 269/1/3 265/1/3 264/1/3
f 270/2/3 267/2/3 266/2/3
f 270/1/3 266/1/3 269/1/3
f 271/2/3 267/2/3 270/2/3
f 272/1/3 269/1/3 264/1/3
f 273/2/3 270/2/3 269/2/3
f 273/1/3 269/1/3 272/1/3
f 274/2/3 270/2/3 273/2/3
f 275/1/3 272/1/3 264/1/3
f 276/2/3 273/2/3 272/2/3
f 276/1/3 272/1/3 275/1/3
f 277/2/3 273/2/3 276/2/3
f 278/1/3 264/1/3 245/1/3
f 278/1/3 275/1/3 264/1/3
f 279/2/3 276/2/3 275/2/3
f 279/1/3 275/1/3 278/1/3
f 280/2/3 276/2/3 279/2/3
f 283/1/3 282/1/3 281/1/3
f 284/1/3 282/1/3 283/1/3
f 288/1/3 286/1/3 285/1/3
f 288/1/3 287/1/3 286/1/3
f 290/1/3 289/1/3 288/1/3
f 292/1/3 291/1/3 290/1/3
f 294/1/3 293/1/3 292/1/3
f 296/1/3 295/1/3 294/1/3
f 298/1/3 297/1/3 296/1/3
f 300/1/3 299/1/3 298/1/3
f 302/1/3 301/1/3 300/1/3
f 304/1/3 303/1/3 302/1/3
f 306/1/3 304/1/3 302/1/3
f 306/1/3 305/1/3 304/1/3
f 307/1/3 305/1/3 306/1/3
f 308/1/3 302/1/3 300/1/3
f 308/1/3 306/1/3 302/1/3
f 309/1/3 306/1/3 308/1/3
f 310/1/3 300/1/3 298/1/3
f 310/1/3 308/1/3 300/1/3
f 311/1/3 308/1/3 310/1/3
f 312/1/3 298/1/3 296/1/3
f 312/1/3 310/1/3 298/1/3
f 313/1/3 310/1/3 312/1/3
f 314/1/3 296/1/3 294/1/3
f 314/1/3 312/1/3 296/1/3
f 315/1/3 312/1/3 314/1/3
f 316/1/3 294/1/3 292/1/3
f 316/1/3 314/1/3 294/1/3
f 317/1/3 314/1/3 316/1/3
f 318/1/3 292/1/3 290/1/3
f 318/1/3 316/1/3 292/1/3
f 319/1/3 316/1/3 318/1/3
f 320/1/3 290/1/3 288/1/3
f 320/1/3 318/1/3 290/1/3
f 321/1/3 318/1/3 320/1/3
f 322/1/3 288/1/3 285/1/3
f 322/1/3 320/1/3 288/1/3
f 323/1/3 320/1/3 322/1/3
f 324/1/3 322/1/3 285/1/3
f 325/1/3 322/1/3 324/1/3
f 326/1/3 322/1/3 325/1/3
f 327/1/4 328/1/4 330/1/4
f 328/1/4 329/1/4 330/1/4
f 330/1/4 331/1/4 332/1/4
f 327/1/4 330/1/4 334/1/4
f 332/1/4 333/1/4 334/1/4
f 330/1/4 332/1/4 334/1/4
f 334/1/4 333/1/4 335/1/4
f 335/1/4 333/1/4 336/1/4
f 336/1/4 337/1/4 338/1/4
f 338/1/4 339/1/4 340/1/4
f 327/1/4 334/1/4 342/1/4
f 340/1/4 341/1/4 343/1/4
f 335/1/4 336/1/4 343/1/4
f 338/1/4 340/1/4 343/1/4
f 336/1/4 338/1/4 343/1/4
f 343/1/4 341/1/4 344/1/4
f 342/1/4 343/1/4 346/1/4
f 344/1/4 345/1/4 346/1/4
f 343/1/4 344/1/4 346/1/4
f 327/1/4 342/1/4 348/1/4
f 346/1/4 347/1/4 348/1/4
f 342/1/4 346/1/4 348/1/4
f 348/1/4 347/1/4 349/1/4
f 349/1/4 347/1/4 350/1/4
f 350/1/4 351/1/4 352/1/4
f 350/1/4 352/1/4 354/1/4
f 352/1/4 353/1/4 354/1/4
f 354/1/4 353/1/4 355/1/4
f 349/1/4 350/1/4 357/1/4
f 350/1/4 354/1/4 357/1/4
f 357/1/4 354/1/4 358/1/4
f 358/1/4 354/1/4 359/1/4
f 356/1/4 357/1/4 360/1/4
f 357/1/4 358/1/4 360/1/4
f 360/1/4 358/1/4 361/1/4
f 356/1/4 360/1/4 362/1/4
f 362/1/4 360/1/4 363/1/4
f 363/1/4 360/1/4 364/1/4
f 364/1/4 360/1/4 365/1/4
f 363/1/4 364/1/4 366/1/4
f 366/1/4 364/1/4 367/1/4
f 363/1/4 366/1/4 368/1/4
f 368/1/4 366/1/4 369/1/4
f 356/1/4 362/1/4 370/1/4
f 363/1/4 368/1/4 371/1/4
f 371/1/4 368/1/4 372/1/4
f 372/1/4 368/1/4 373/1/4
f 370/1/4 371/1/4 374/1/4
f 371/1/4 372/1/4 374/1/4
f 374/1/4 372/1/4 375/1/4
f 370/1/4 374/1/4 376/1/4
f 376/1/4 374/1/4 377/1/4
f 356/1/4 370/1/4 378/1/4
f 370/1/4 376/1/4 378/1/4
f 378/1/4 376/1/4 379/1/4
f 379/1/4 376/1/4 380/1/4
f 381/1/4 382/1/4 384/1/4
f 382/2/4 383/2/4 384/2/4
f 384/2/4 383/2/4 385/2/4
f 384/1/4 385/1/4 387/1/4
f 385/2/4 386/2/4 387/2/4
f 387/2/4 386/2/4 388/2/4
f 387/1/4 388/1/4 390/1/4
f 388/2/4 389/2/4 390/2/4
f 390/2/4 389/2/4 391/2/4
f 390/1/4 391/1/4 393/1/4
f 391/2/4 392/2/4 393/2/4
f 393/2/4 392/2/4 394/2/4
f 393/1/4 394/1/4 396/1/4
f 394/2/4 395/2/4 396/2/4
f 396/2/4 395/2/4 397/2/4
f 396/1/4 397/1/4 399/1/4
f 397/2/4 398/2/4 399/2/4
f 399/2/4 398/2/4 400/2/4
f 399/1/4 400/1/4 402/1/4
f 400/2/4 401/2/4 402/2/4
f 402/2/4 401/2/4 403/2/4
f 402/1/4 403/1/4 405/1/4
f 403/2/4 404/2/4 405/2/4
f 405/2/4 404/2/4 406/2/4
f 405/1/4 406/1/4 408/1/4
f 406/2/4 407/2/4 408/2/4
f 408/2/4 407/2/4 409/2/4
f 408/1/4 409/1/4 411/1/4
f 409/2/4 410/2/4 411/2/4
f 411/2/4 410/2/4 412/2/4
f 408/1/4 411/1/4 414/1/4
f 411/1/4 412/1/4 414/1/4
f 412/2/4 413/2/4 415/2/4
f 414/1/4 412/1/4 415/1/4
f 415/2/4 413/2/4 416/2/4
f 405/1/4 408/1/4 417/1/4
f 408/1/4 414/1/4 417/1/4
f 414/2/4 415/2/4 418/2/4
f 417/1/4 414/1/4 418/1/4
f 418/2/4 415/2/4 419/2/4
f 402/1/4 405/1/4 420/1/4
f 405/1/4 417/1/4 420/1/4
f 417/2/4 418/2/4 421/2/4
f 420/1/4 417/1/4 421/1/4
f 421/2/4 418/2/4 422/2/4
f 399/1/4 402/1/4 423/1/4
f 402/1/4 420/1/4 423/1/4
f 420/2/4 421/2/4 424/2/4
f 423/1/4 420/1/4 424/1/4
f 424/2/4 421/2/4 425/2/4
f 396/1/4 399/1/4 426/1/4
f 399/1/4 423/1/4 426/1/4
f 423/2/4 424/2/4 427/2/4
f 426/1/4 423/1/4 427/1/4
f 427/2/4 424/2/4 428/2/4
f 393/1/4 396/1/4 429/1/4
f 396/1/4 426/1/4 429/1/4
f 426/2/4 427/2/4 430/2/4
f 429/1/4 426/1/4 430/1/4
f 430/2/4 427/2/4 431/2/4
f 390/1/4 393/1/4 432/1/4
f 393/1/4 429/1/4 432/1/4
f 429/2/4 430/2/4 433/2/4
f 432/1/4 429/1/4 433/1/4
f 433/2/4 430/2/4 434/2/4
f 387/1/4 390/1/4 435/1/4
f 390/1/4 432/1/4 435/1/4
f 432/2/4 433/2/4 436/2/4
f 435/1/4 432/1/4 436/1/4
f 436/2/4 433/2/4 437/2/4
f 384/1/4 387/1/4 438/1/4
f 387/1/4 435/1/4 438/1/4
f 435/2/4 436/2/4 439/2/4
f 438/1/4 435/1/4 439/1/4
f 439/2/4 436/2/4 440/2/4
f 381/1/4 384/1/4 441/1/4
f 384/1/4 438/1/4 441/1/4
f 438/2/4 439/2/4 442/2/4
f 441/1/4 438/1/4 442/1/4
f 442/2/4 439/2/4 443/2/4
f 381/1/4 441/1/4 444/1/4
f 441/2/4 442/2/4 445/2/4
f 444/1/4 441/1/4 445/1/4
f 445/2/4 442/2/4 446/2/4
f 451/1/5 448/1/5 447/1/5
f 452/1/5 450/1/5 449/1/5
f 453/1/5 451/1/5 447/1/5
f 453/1/5 452/1/5 451/1/5
f 454/1/5 450/1/5 452/1/5
f 454/1/5 452/1/5 453/1/5
f 457/1/5 456/1/5 455/1/5
f 458/1/5 456/1/5 457/1/5
f 463/1/5 460/1/5 459/1/5
f 464/1/5 460/1/5 463/1/5
f 465/1/5 462/1/5 461/1/5
f 466/1/5 462/1/5 465/1/5
f 471/2/5 468/2/5 467/2/5
f 472/2/5 468/2/5 471/2/5
f 473/2/5 470/2/5 469/2/5
f 474/2/5 470/2/5 473/2/5
f 479/2/5 476/2/5 475/2/5
f 480/2/5 476/2/5 479/2/5
f 481/2/5 478/2/5 477/2/5
f 482/2/5 478/2/5 481/2/5
f 487/2/5 484/2/5 483/2/5
f 488/2/5 484/2/5 487/2/5
f 489/2/5 486/2/5 485/2/5
f 490/2/5 486/2/5 489/2/5
f 495/2/5 492/2/5 491/2/5
f 496/2/5 492/2/5 495/2/5
f 497/2/5 494/2/5 493/2/5
f 498/2/5 494/2/5 497/2/5
f 503/2/5 500/2/5 499/2/5
f 504/2/5 500/2/5 503/2/5
f 505/2/5 502/2/5 501/2/5
f 506/2/5 502/2/5 505/2/5
f 511/2/5 508/2/5 507/2/5
f 512/2/5 508/2/5 511/2/5
f 513/2/5 510/2/5 509/2/5
f 514/2/5 510/2/5 513/2/5
f 519/2/5 516/2/5 515/2/5
f 520/2/5 516/2/5 519/2/5
f 521/2/5 518/2/5 517/2/5
f 522/2/5 518/2/5 521/2/5
f 527/2/5 524/2/5 523/2/5
f 528/2/5 524/2/5 527/2/5
f 529/2/5 526/2/5 525/2/5
f 530/2/5 526/2/5 529/2/5
f 535/2/5 532/2/5 531/2/5
f 536/2/5 532/2/5 535/2/5
f 537/2/5 534/2/5 533/2/5
f 538/2/5 534/2/5 537/2/5
f 541/2/5 540/2/5 539/2/5
f 542/2/5 540/2/5 541/2/5
f 543/1/6 544/1/6 547/1/6
f 545/1/6 546/1/6 547/1/6
f 544/1/6 545/1/6 547/1/6
f 547/1/6 546/1/6 548/1/6
f 549/1/6 550/1/6 553/1/6
f 553/1/6 550/1/6 554/1/6
f 551/1/6 552/1/6 555/1/6
f 555/1/6 552/1/6 556/1/6
f 557/2/6 558/2/6 561/2/6
f 561/2/6 558/2/6 562/2/6
f 559/2/6 560/2/6 563/2/6
f 563/2/6 560/2/6 564/2/6
f 565/2/6 566/2/6 569/2/6
f 569/2/6 566/2/6 570/2/6
f 567/2/6 568/2/6 571/2/6
f 571/2/6 568/2/6 572/2/6
f 573/2/6 574/2/6 577/2/6
f 577/2/6 574/2/6 578/2/6
f 575/2/6 576/2/6 579/2/6
f 579/2/6 576/2/6 580/2/6
f 581/2/6 582/2/6 585/2/6
f 585/2/6 582/2/6 586/2/6
f 583/2/6 584/2/6 587/2/6
f 587/2/6 584/2/6 588/2/6
f 589/2/6 590/2/6 593/2/6
f 593/2/6 590/2/6 594/2/6
f 591/2/6 592/2/6 595/2/6
f 595/2/6 592/2/6 596/2/6
f 597/2/6 598/2/6 601/2/6
f 601/2/6 598/2/6 602/2/6
f 599/2/6 600/2/6 603/2/6
f 603/2/6 600/2/6 604/2/6
f 605/2/6 606/2/6 609/2/6
f 609/2/6 606/2/6 610/2/6
f 607/2/6 608/2/6 611/2/6
f 611/2/6 608/2/6 612/2/6
f 613/2/6 614/2/6 617/2/6
f 617/2/6 614/2/6 618/2/6
f 615/2/6 616/2/6 619/2/6
f 619/2/6 616/2/6 620/2/6
f 621/2/6 622/2/6 625/2/6
f 625/2/6 622/2/6 626/2/6
f 623/2/6 624/2/6 627/2/6
f 627/2/6 624/2/6 628/2/6
f 629/2/6 630/2/6 633/2/6
f 633/2/6 630/2/6 634/2/6
f 631/2/6 632/2/6 635/2/6
f 635/2/6 632/2/6 636/2/6
f 637/2/6 638/2/6 639/2/6
f 639/2/6 638/2/6 640/2/6
